<svg id="Capa_1" data-name="Capa 1" xmlns="http://www.w3.org/2000/svg" viewBox="0 0 300 300"><defs><style>.cls-1{fill:#fced19}.cls-2{fill:#ff9d00}.cls-4{fill:none;stroke:#262626;stroke-linecap:round;stroke-linejoin:round;stroke-width:4px}</style></defs><path class="cls-1" d="M150 0a150 150 0 0 1 150 150 150 150 0 0 1-150 150A150 150 0 0 1 0 150 150 150 0 0 1 150 0Z"/><path class="cls-1" d="M223.39 82.25v8h-30.12v-8a15.06 15.06 0 0 1 30.12 0Z"/><path class="cls-2" d="M195.87 89.19a1.44 1.44 0 0 0-2.6-.85v1.71a1.88 1.88 0 0 0 .24.25h1.83a1.44 1.44 0 0 0 .53-1.11ZM198 84.15a1.44 1.44 0 1 0 1.44 1.44 1.43 1.43 0 0 0-1.44-1.44ZM195.87 74.75a1.4 1.4 0 0 0-.19-.69 13.94 13.94 0 0 0-1.14 2.12 1.43 1.43 0 0 0 1.33-1.43ZM189.47 71.19a1.49 1.49 0 0 0-.3-.86 14.79 14.79 0 0 0-2.09 1.94 1.44 1.44 0 0 0 2.39-1.08ZM198 77a1.44 1.44 0 1 0 1.44 1.44A1.43 1.43 0 0 0 198 77ZM194.43 83.43a1.44 1.44 0 1 0 0-2.88 1.46 1.46 0 0 0-1.1.52c0 .39-.06.78-.06 1.18v.6a1.43 1.43 0 0 0 1.16.58ZM210.27 89.19a1.44 1.44 0 1 0-2.36 1.11h1.83a1.44 1.44 0 0 0 .53-1.11ZM203.07 89.19a1.44 1.44 0 1 0-2.36 1.11h1.83a1.44 1.44 0 0 0 .53-1.11ZM205.23 84.15a1.44 1.44 0 1 0 1.44 1.44 1.43 1.43 0 0 0-1.44-1.44ZM212.43 84.15a1.44 1.44 0 1 0 1.44 1.44 1.43 1.43 0 0 0-1.44-1.44ZM208.83 73.35a1.44 1.44 0 1 0 1.44 1.44 1.43 1.43 0 0 0-1.44-1.44ZM201.63 73.35a1.44 1.44 0 1 0 1.44 1.44 1.43 1.43 0 0 0-1.44-1.44ZM195.23 69.75a1.44 1.44 0 1 0 1.44 1.44 1.43 1.43 0 0 0-1.44-1.44ZM202.43 69.75a1.44 1.44 0 1 0 1.44 1.44 1.43 1.43 0 0 0-1.44-1.44ZM205.23 77a1.44 1.44 0 1 0 1.44 1.44 1.43 1.43 0 0 0-1.44-1.44ZM212.43 77a1.44 1.44 0 1 0 1.44 1.44 1.43 1.43 0 0 0-1.44-1.44ZM208.83 80.55a1.44 1.44 0 1 0 1.44 1.45 1.43 1.43 0 0 0-1.44-1.44ZM201.63 80.55a1.44 1.44 0 1 0 1.44 1.45 1.43 1.43 0 0 0-1.44-1.44ZM198.83 69a1.43 1.43 0 0 0 1.44-1.44 1.13 1.13 0 0 0 0-.26 15 15 0 0 0-1.9-.13 5.62 5.62 0 0 0-.91 0 1.93 1.93 0 0 0 0 .34 1.43 1.43 0 0 0 1.37 1.49ZM192.92 68.22a14.13 14.13 0 0 0-1.68.76 1.74 1.74 0 0 0 .39 0 1.44 1.44 0 0 0 1.29-.76ZM221.79 89.19a1.43 1.43 0 0 0 .52 1.11h1.08v-2.55h-.16a1.43 1.43 0 0 0-1.44 1.44ZM217.47 89.19a1.44 1.44 0 1 0-2.36 1.11h1.83a1.44 1.44 0 0 0 .53-1.11ZM219.63 84.15a1.44 1.44 0 1 0 1.44 1.44 1.43 1.43 0 0 0-1.44-1.44ZM216 73.35a1.44 1.44 0 1 0 1.44 1.44 1.43 1.43 0 0 0-1.44-1.44ZM209.63 72.63h.26a15.87 15.87 0 0 0-1.68-1.7v.28a1.44 1.44 0 0 0 1.42 1.42ZM219.63 77a1.44 1.44 0 1 0 1.44 1.44 1.43 1.43 0 0 0-1.44-1.44ZM221.79 82a1.43 1.43 0 0 0 1.42 1.44h.18v-1.19a16 16 0 0 0-.1-1.69h-.06a1.44 1.44 0 0 0-1.44 1.44ZM216 80.55a1.44 1.44 0 1 0 1.44 1.45 1.43 1.43 0 0 0-1.44-1.45Z"/><path d="M193.27 67.2h15.07a15.06 15.06 0 0 0-15.07 15v135.5a15 15 0 1 1-30.09 0v-7.53H95.42v-128a15 15 0 0 1 15-15h82.9Z" style="fill:#fff"/><path class="cls-1" d="M178.22 232.8H91.66a15 15 0 0 1-15-15V214a3.77 3.77 0 0 1 3.77-3.76h82.8v7.53a15 15 0 0 0 15 15.05Z"/><path class="cls-2" d="M82.83 228.15a1.43 1.43 0 0 0-1.26.75 14.53 14.53 0 0 0 2.28 1.7 1.38 1.38 0 0 0 .42-1 1.45 1.45 0 0 0-1.44-1.45ZM79.23 217.35a1.44 1.44 0 1 0 1.44 1.44 1.43 1.43 0 0 0-1.44-1.44ZM77.07 215.19a1.42 1.42 0 0 0-.46-1v2.09a1.45 1.45 0 0 0 .46-1.09ZM82.83 213.75a1.44 1.44 0 1 0 1.44 1.44 1.43 1.43 0 0 0-1.44-1.44ZM82.83 221a1.44 1.44 0 1 0 1.44 1.44 1.43 1.43 0 0 0-1.44-1.44ZM80.67 226a1.46 1.46 0 0 0-1.44-1.44 1.37 1.37 0 0 0-.85.29 15.69 15.69 0 0 0 1.62 2.38 1.44 1.44 0 0 0 .67-1.23ZM79.23 213a1.44 1.44 0 0 0 .57-2.76 3.76 3.76 0 0 0-2 .94 1.58 1.58 0 0 0 0 .38 1.43 1.43 0 0 0 1.37 1.44ZM93.63 231.75a1.43 1.43 0 0 0-1.38 1.05H95a1.43 1.43 0 0 0-1.37-1.05ZM86.43 231.75h-.21c.41.16.82.31 1.24.43a1.42 1.42 0 0 0-1.03-.43ZM90 228.15a1.44 1.44 0 1 0 1.44 1.44 1.43 1.43 0 0 0-1.44-1.44ZM97.23 228.15a1.44 1.44 0 1 0 1.44 1.44 1.43 1.43 0 0 0-1.44-1.44ZM93.63 217.35a1.44 1.44 0 1 0 1.44 1.44 1.43 1.43 0 0 0-1.44-1.44ZM86.43 217.35a1.44 1.44 0 1 0 1.44 1.44 1.43 1.43 0 0 0-1.44-1.44ZM90 213.75a1.44 1.44 0 1 0 1.44 1.44 1.43 1.43 0 0 0-1.44-1.44ZM97.23 213.75a1.44 1.44 0 1 0 1.44 1.44 1.43 1.43 0 0 0-1.44-1.44ZM90 221a1.44 1.44 0 1 0 1.44 1.44A1.43 1.43 0 0 0 90 221ZM97.23 221a1.44 1.44 0 1 0 1.44 1.44 1.43 1.43 0 0 0-1.44-1.44ZM93.63 224.55a1.44 1.44 0 1 0 1.44 1.45 1.43 1.43 0 0 0-1.44-1.44ZM86.43 224.55a1.44 1.44 0 1 0 1.44 1.45 1.43 1.43 0 0 0-1.44-1.44ZM92.19 211.59a1.44 1.44 0 1 0 1.81-1.37h-.79a1.43 1.43 0 0 0-1.02 1.37ZM85 211.59a1.44 1.44 0 1 0 1.83-1.37H86a1.43 1.43 0 0 0-1 1.37ZM108 231.75a1.43 1.43 0 0 0-1.38 1.05h2.75a1.43 1.43 0 0 0-1.37-1.05ZM100.83 231.75a1.43 1.43 0 0 0-1.38 1.05h2.75a1.43 1.43 0 0 0-1.37-1.05ZM104.43 228.15a1.44 1.44 0 1 0 1.44 1.44 1.43 1.43 0 0 0-1.44-1.44ZM111.63 228.15a1.44 1.44 0 1 0 1.44 1.44 1.43 1.43 0 0 0-1.44-1.44ZM108 217.35a1.44 1.44 0 1 0 1.44 1.44 1.43 1.43 0 0 0-1.44-1.44ZM100.83 217.35a1.44 1.44 0 1 0 1.44 1.44 1.43 1.43 0 0 0-1.44-1.44ZM104.43 213.75a1.44 1.44 0 1 0 1.44 1.44 1.43 1.43 0 0 0-1.44-1.44ZM111.63 213.75a1.44 1.44 0 1 0 1.44 1.44 1.43 1.43 0 0 0-1.44-1.44ZM104.43 221a1.44 1.44 0 1 0 1.44 1.44 1.43 1.43 0 0 0-1.44-1.44ZM111.63 221a1.44 1.44 0 1 0 1.44 1.44 1.43 1.43 0 0 0-1.44-1.44ZM108 224.55a1.44 1.44 0 1 0 1.44 1.44 1.43 1.43 0 0 0-1.44-1.44ZM100.83 224.55a1.44 1.44 0 1 0 1.44 1.44 1.43 1.43 0 0 0-1.44-1.44ZM106.59 211.59a1.44 1.44 0 1 0 1.83-1.37h-.79a1.43 1.43 0 0 0-1.04 1.37ZM99.39 211.59a1.44 1.44 0 1 0 1.83-1.37h-.79a1.43 1.43 0 0 0-1.04 1.37ZM122.43 231.75a1.43 1.43 0 0 0-1.38 1.05h2.75a1.43 1.43 0 0 0-1.37-1.05ZM115.23 231.75a1.43 1.43 0 0 0-1.38 1.05h2.75a1.43 1.43 0 0 0-1.37-1.05ZM118.83 228.15a1.44 1.44 0 1 0 1.44 1.44 1.43 1.43 0 0 0-1.44-1.44ZM126 228.15a1.44 1.44 0 1 0 1.44 1.44 1.43 1.43 0 0 0-1.44-1.44ZM122.43 217.35a1.44 1.44 0 1 0 1.44 1.44 1.43 1.43 0 0 0-1.44-1.44ZM115.23 217.35a1.44 1.44 0 1 0 1.44 1.44 1.43 1.43 0 0 0-1.44-1.44ZM118.83 213.75a1.44 1.44 0 1 0 1.44 1.44 1.43 1.43 0 0 0-1.44-1.44ZM126 213.75a1.44 1.44 0 1 0 1.44 1.44 1.43 1.43 0 0 0-1.44-1.44ZM118.83 221a1.44 1.44 0 1 0 1.44 1.44 1.43 1.43 0 0 0-1.44-1.44ZM126 221a1.44 1.44 0 1 0 1.44 1.44A1.43 1.43 0 0 0 126 221ZM122.43 224.55a1.44 1.44 0 1 0 1.44 1.44 1.43 1.43 0 0 0-1.44-1.44ZM115.23 224.55a1.44 1.44 0 1 0 1.44 1.44 1.43 1.43 0 0 0-1.44-1.44ZM121 211.59a1.44 1.44 0 1 0 1.83-1.37H122a1.43 1.43 0 0 0-1 1.37ZM113.79 211.59a1.44 1.44 0 1 0 1.83-1.37h-.79a1.43 1.43 0 0 0-1.04 1.37ZM136.83 231.75a1.43 1.43 0 0 0-1.38 1.05h2.75a1.43 1.43 0 0 0-1.37-1.05ZM129.63 231.75a1.43 1.43 0 0 0-1.38 1.05H131a1.43 1.43 0 0 0-1.37-1.05ZM133.23 228.15a1.44 1.44 0 1 0 1.44 1.44 1.43 1.43 0 0 0-1.44-1.44ZM140.43 228.15a1.44 1.44 0 1 0 1.44 1.44 1.43 1.43 0 0 0-1.44-1.44ZM136.83 217.35a1.44 1.44 0 1 0 1.44 1.44 1.43 1.43 0 0 0-1.44-1.44ZM129.63 217.35a1.44 1.44 0 1 0 1.44 1.44 1.43 1.43 0 0 0-1.44-1.44ZM133.23 213.75a1.44 1.44 0 1 0 1.44 1.44 1.43 1.43 0 0 0-1.44-1.44ZM140.43 213.75a1.44 1.44 0 1 0 1.44 1.44 1.43 1.43 0 0 0-1.44-1.44ZM133.23 221a1.44 1.44 0 1 0 1.44 1.44 1.43 1.43 0 0 0-1.44-1.44ZM140.43 221a1.44 1.44 0 1 0 1.44 1.44 1.43 1.43 0 0 0-1.44-1.44ZM136.83 224.55a1.44 1.44 0 1 0 1.44 1.44 1.43 1.43 0 0 0-1.44-1.44ZM129.63 224.55a1.44 1.44 0 1 0 1.44 1.44 1.43 1.43 0 0 0-1.44-1.44ZM135.39 211.59a1.44 1.44 0 1 0 1.83-1.37h-.79a1.43 1.43 0 0 0-1.04 1.37ZM128.19 211.59a1.44 1.44 0 1 0 1.83-1.37h-.79a1.43 1.43 0 0 0-1.04 1.37ZM151.23 231.75a1.43 1.43 0 0 0-1.38 1.05h2.75a1.43 1.43 0 0 0-1.37-1.05ZM144 231.75a1.43 1.43 0 0 0-1.38 1.05h2.75a1.43 1.43 0 0 0-1.37-1.05ZM147.63 228.15a1.44 1.44 0 1 0 1.44 1.44 1.43 1.43 0 0 0-1.44-1.44ZM154.83 228.15a1.44 1.44 0 1 0 1.44 1.44 1.43 1.43 0 0 0-1.44-1.44ZM151.23 217.35a1.44 1.44 0 1 0 1.44 1.44 1.43 1.43 0 0 0-1.44-1.44ZM144 217.35a1.44 1.44 0 1 0 1.44 1.44 1.43 1.43 0 0 0-1.44-1.44ZM147.63 213.75a1.44 1.44 0 1 0 1.44 1.44 1.43 1.43 0 0 0-1.44-1.44ZM154.83 213.75a1.44 1.44 0 1 0 1.44 1.44 1.43 1.43 0 0 0-1.44-1.44ZM147.63 221a1.44 1.44 0 1 0 1.44 1.44 1.43 1.43 0 0 0-1.44-1.44ZM154.83 221a1.44 1.44 0 1 0 1.44 1.44 1.43 1.43 0 0 0-1.44-1.44ZM151.23 224.55a1.44 1.44 0 1 0 1.44 1.44 1.43 1.43 0 0 0-1.44-1.44ZM144 224.55a1.44 1.44 0 1 0 1.44 1.44 1.43 1.43 0 0 0-1.44-1.44ZM149.79 211.59a1.44 1.44 0 1 0 1.83-1.37h-.79a1.43 1.43 0 0 0-1.04 1.37ZM142.59 211.59a1.44 1.44 0 1 0 1.83-1.37h-.79a1.43 1.43 0 0 0-1.04 1.37ZM165.63 231.75a1.43 1.43 0 0 0-1.38 1.05H167a1.43 1.43 0 0 0-1.37-1.05ZM158.43 231.75a1.43 1.43 0 0 0-1.38 1.05h2.75a1.43 1.43 0 0 0-1.37-1.05ZM162 228.15a1.44 1.44 0 1 0 1.44 1.44 1.43 1.43 0 0 0-1.44-1.44ZM169.23 231a1.44 1.44 0 0 0 1.08-.49 15.44 15.44 0 0 1-2.31-1.71 1.44 1.44 0 0 0 .41 2 1.41 1.41 0 0 0 .79.24ZM158.43 217.35a1.44 1.44 0 1 0 1.44 1.44 1.43 1.43 0 0 0-1.44-1.44ZM162 213.75a1.44 1.44 0 1 0 1.15 2.3v-1.72a1.45 1.45 0 0 0-1.15-.58ZM162 221a1.44 1.44 0 1 0 1.44 1.44A1.43 1.43 0 0 0 162 221ZM164.19 226a1.43 1.43 0 0 0 1.42 1.44 1.44 1.44 0 0 0 .85-.28 13.58 13.58 0 0 1-1.57-2.4 1.44 1.44 0 0 0-.7 1.24ZM158.43 224.55a1.44 1.44 0 1 0 1.44 1.44 1.43 1.43 0 0 0-1.44-1.44ZM157 211.59a1.44 1.44 0 1 0 1.83-1.37H158a1.43 1.43 0 0 0-1 1.37ZM173.8 232.14a7.73 7.73 0 0 1-1-.38 1.41 1.41 0 0 0-1.3 1h2.75a1.33 1.33 0 0 0-.45-.62Z"/><path class="cls-4" d="M125.54 67.2h-15.07a15 15 0 0 0-15 15v128.1M193.27 97.32V89.78M125.54 67.2h82.8a15.05 15.05 0 0 1 15 15v8h-30.07"/><path class="cls-4" d="M208.34 67.2a15.06 15.06 0 0 0-15.07 15h0v7.5M178.22 232.8a15 15 0 0 1-15-15v-7.58h-82.8a3.77 3.77 0 0 0-3.77 3.78v3.77A15 15 0 0 0 91.6 232.8h86.61a15 15 0 0 0 15-15V97.32"/></svg>