<svg id="Capa_1" data-name="Capa 1" xmlns="http://www.w3.org/2000/svg" viewBox="0 0 300 300"><defs><style>.cls-1{fill:#40dcff}.cls-2{fill:#fff}.cls-3{fill:#009fff}.cls-4{fill:none;stroke:#262626;stroke-linecap:round;stroke-linejoin:round;stroke-width:4px}</style></defs><path class="cls-1" d="M150 300A150 150 0 0 1 0 150 150 150 0 0 1 150 0a150 150 0 0 1 150 150 150 150 0 0 1-150 150Z"/><path class="cls-1" d="M186.32 182.28a28 28 0 0 1 6.88-.86 27.41 27.41 0 1 1-6.88.86Zm6.88 38.41a11.79 11.79 0 1 0-11.78-11.8 11.8 11.8 0 0 0 11.78 11.8Z"/><path class="cls-2" d="M114.36 182.47a27.52 27.52 0 1 1-7.56-1.05 27.52 27.52 0 0 1 7.56 1.05Zm-7.56 38.22A11.79 11.79 0 1 0 95 208.91a11.79 11.79 0 0 0 11.8 11.78Z"/><path class="cls-3" d="M169.42 222.38h-.16c.35.63.73 1.25 1.13 1.84a1.18 1.18 0 0 0-.23-1.64 1.25 1.25 0 0 0-.77-.23ZM172.42 219.38a1.2 1.2 0 1 0 1.2 1.2 1.2 1.2 0 0 0-1.2-1.2ZM173.62 226.58a1.19 1.19 0 0 0-2.1-.78c.48.62 1 1.21 1.52 1.79a1.23 1.23 0 0 0 .58-1.01ZM169.42 210.38a1.2 1.2 0 1 0 1.2 1.2 1.2 1.2 0 0 0-1.2-1.2ZM167.62 208.58a1.2 1.2 0 0 0-1.2-1.2 1.19 1.19 0 0 0-.68.24v1.91a1.16 1.16 0 0 0 1.88-.95ZM172.42 207.38a1.2 1.2 0 1 0 1.2 1.2 1.2 1.2 0 0 0-1.2-1.2ZM167.62 214.58a1.2 1.2 0 0 0-1.2-1.2.93.93 0 0 0-.33.07c.13.77.28 1.54.48 2.3a1.2 1.2 0 0 0 1.05-1.17ZM172.42 213.38a1.2 1.2 0 1 0 1.2 1.2 1.2 1.2 0 0 0-1.2-1.2ZM169.42 216.38a1.2 1.2 0 1 0 1.2 1.2 1.2 1.2 0 0 0-1.2-1.2ZM169.42 198.38a1.2 1.2 0 1 0 1.2 1.2 1.2 1.2 0 0 0-1.2-1.2ZM172.42 195.38a1.2 1.2 0 1 0 1.2 1.2 1.2 1.2 0 0 0-1.2-1.2ZM167.62 202.58a1.19 1.19 0 0 0-.88-1.14c-.21.75-.39 1.52-.54 2.29a.81.81 0 0 0 .22 0 1.21 1.21 0 0 0 1.2-1.15ZM172.42 201.38a1.2 1.2 0 1 0 1.2 1.2 1.2 1.2 0 0 0-1.2-1.2ZM169.42 204.38a1.2 1.2 0 1 0 1.2 1.2 1.2 1.2 0 0 0-1.2-1.2ZM173.62 190.58a1.13 1.13 0 0 0-.25-.7c-.53.55-1 1.13-1.53 1.73a1.22 1.22 0 0 0 .58.17 1.2 1.2 0 0 0 1.2-1.2ZM170.62 193.58a1.22 1.22 0 0 0 0-.27c-.32.46-.63.94-.93 1.42a1.17 1.17 0 0 0 .93-1.15ZM178.42 231.38a1.19 1.19 0 0 0-.7.25c.61.41 1.23.79 1.86 1.15v-.2a1.2 1.2 0 0 0-1.16-1.2ZM184.42 231.38a1.2 1.2 0 1 0 1.2 1.2 1.2 1.2 0 0 0-1.2-1.2ZM181.42 188.75a1.2 1.2 0 1 0-1.2-1.2 1.2 1.2 0 0 0 1.2 1.2ZM176.62 187.58a1.13 1.13 0 0 0-.12-.51c-.6.47-1.2 1-1.76 1.47a1.17 1.17 0 0 0 1.88-1ZM179.51 185.07c-.39.22-.77.46-1.14.7a1.18 1.18 0 0 0 1.14-.7ZM184.42 185.75a1.2 1.2 0 1 0-1.2-1.2 1.2 1.2 0 0 0 1.2 1.2ZM178.42 189.38a1.2 1.2 0 1 0 1.2 1.2 1.2 1.2 0 0 0-1.2-1.2ZM184.42 191.75a1.2 1.2 0 1 0-1.2-1.2 1.2 1.2 0 0 0 1.2 1.2ZM193.42 234.38a1.19 1.19 0 0 0-1.2 1.18 1.17 1.17 0 0 0 .32.82h1.77a1.15 1.15 0 0 0 .31-.79 1.2 1.2 0 0 0-1.19-1.21ZM187.42 234.38a1.19 1.19 0 0 0-1.18 1.13c.75.19 1.52.35 2.3.49a1.19 1.19 0 0 0-1.12-1.62ZM190.42 231.38a1.2 1.2 0 1 0 1.2 1.2 1.2 1.2 0 0 0-1.2-1.2ZM196.42 231.38a1.2 1.2 0 1 0 1.2 1.2 1.2 1.2 0 0 0-1.2-1.2ZM193.42 188.75a1.2 1.2 0 1 0-1.2-1.2 1.2 1.2 0 0 0 1.2 1.2ZM187.42 188.75a1.2 1.2 0 1 0-1.2-1.2 1.2 1.2 0 0 0 1.2 1.2ZM190.42 185.75a1.2 1.2 0 1 0-1.2-1.2 1.2 1.2 0 0 0 1.2 1.2ZM196.42 185.75a1.2 1.2 0 1 0-1.2-1.2 1.2 1.2 0 0 0 1.2 1.2ZM190.42 191.75a1.2 1.2 0 1 0-1.2-1.2 1.2 1.2 0 0 0 1.2 1.2ZM196.42 191.75a1.2 1.2 0 1 0-1.2-1.2 1.2 1.2 0 0 0 1.2 1.2ZM193.42 182.75a1.2 1.2 0 0 0 1.2-1.2v-.12h-2.4v.14a1.2 1.2 0 0 0 1.2 1.18ZM187.42 182.75a1.2 1.2 0 0 0 1.16-1c-.72.12-1.43.27-2.12.44a1.15 1.15 0 0 0 .96.56ZM199.42 234.38a1.2 1.2 0 0 0-1.2 1.2 1.28 1.28 0 0 0 .07.34c.78-.14 1.54-.32 2.29-.53a1.17 1.17 0 0 0-1.16-1.01ZM202.42 231.38a1.2 1.2 0 1 0 1.2 1.2 1.2 1.2 0 0 0-1.2-1.2ZM207.23 232.55c.57-.34 1.12-.7 1.66-1.08a1.21 1.21 0 0 0-1.57.65 1 1 0 0 0-.09.43ZM205.42 186.38a1.2 1.2 0 1 0 1.2 1.2 1.2 1.2 0 0 0-1.2-1.2ZM199.42 188.75a1.2 1.2 0 1 0-1.2-1.2 1.2 1.2 0 0 0 1.2 1.2ZM202.42 185.75a1.2 1.2 0 1 0-1.2-1.2 1.2 1.2 0 0 0 1.2 1.2ZM202.42 191.75a1.2 1.2 0 1 0-1.2-1.2 1.2 1.2 0 0 0 1.2 1.2ZM208.42 189.38a1.2 1.2 0 1 0 1.2 1.2 1.2 1.2 0 0 0-1.2-1.2ZM199.42 182.75a1.2 1.2 0 0 0 .9-.42c-.67-.18-1.35-.33-2-.46a1.19 1.19 0 0 0 1.1.88ZM216.22 223.58a1.1 1.1 0 0 0 .06.26c.29-.46.58-.92.85-1.4a1.18 1.18 0 0 0-.91 1.14ZM214.42 221.75a1.2 1.2 0 1 0-1.2-1.2 1.2 1.2 0 0 0 1.2 1.2ZM213.22 226.58a1.18 1.18 0 0 0 .33.81c.53-.58 1-1.18 1.5-1.81a1.1 1.1 0 0 0-.63-.2 1.2 1.2 0 0 0-1.2 1.2ZM217.42 212.75a1.2 1.2 0 1 0-1.2-1.2 1.2 1.2 0 0 0 1.2 1.2ZM214.42 209.75a1.2 1.2 0 1 0-1.2-1.2 1.2 1.2 0 0 0 1.2 1.2ZM219.22 208.58a1.2 1.2 0 0 0 1.2 1.2h.25v-2.3a.86.86 0 0 0-.23 0 1.2 1.2 0 0 0-1.22 1.1ZM214.42 215.75a1.2 1.2 0 1 0-1.2-1.2 1.2 1.2 0 0 0 1.2 1.2ZM219.22 214.58a1.19 1.19 0 0 0 .64 1c.19-.73.34-1.47.46-2.22a1.19 1.19 0 0 0-1.1 1.22ZM217.42 218.75a1.2 1.2 0 1 0-1.2-1.2 1.2 1.2 0 0 0 1.2 1.2ZM217.42 200.75a1.2 1.2 0 1 0-1.2-1.2 1.2 1.2 0 0 0 1.2 1.2ZM214.42 197.75a1.2 1.2 0 1 0-1.2-1.2 1.2 1.2 0 0 0 1.2 1.2ZM214.42 203.75a1.2 1.2 0 1 0-1.2-1.2 1.2 1.2 0 0 0 1.2 1.2ZM219.22 202.58a1.18 1.18 0 0 0 1 1.15c-.14-.71-.3-1.41-.49-2.09a1.17 1.17 0 0 0-.51.94ZM217.42 206.75a1.2 1.2 0 1 0-1.2-1.2 1.2 1.2 0 0 0 1.2 1.2ZM211.42 188.75a1.35 1.35 0 0 0 .4-.08c-.5-.47-1-.92-1.55-1.35a.89.89 0 0 0 0 .23 1.21 1.21 0 0 0 1.15 1.2ZM214.42 191.75h.24c-.43-.54-.89-1.06-1.36-1.56a1.42 1.42 0 0 0-.08.41 1.21 1.21 0 0 0 1.2 1.15ZM216.31 194a1 1 0 0 0 .17.28ZM181.42 222.38a1.2 1.2 0 1 0 1.2 1.2 1.2 1.2 0 0 0-1.2-1.2ZM175.42 222.38a1.2 1.2 0 1 0 1.2 1.2 1.2 1.2 0 0 0-1.2-1.2ZM178.42 219.38a1.2 1.2 0 1 0 1.2 1.2 1.2 1.2 0 0 0-1.2-1.2ZM184.42 219.38a1.2 1.2 0 1 0 1.2 1.2 1.2 1.2 0 0 0-1.2-1.2ZM178.42 225.38a1.2 1.2 0 1 0 1.2 1.2 1.2 1.2 0 0 0-1.2-1.2ZM184.42 225.38a1.2 1.2 0 1 0 1.2 1.2 1.2 1.2 0 0 0-1.2-1.2ZM181.42 228.38a1.2 1.2 0 1 0 1.2 1.2 1.2 1.2 0 0 0-1.2-1.2ZM176.62 229.58a1.2 1.2 0 0 0-1.2-1.2 1.19 1.19 0 0 0-1 .59c.57.53 1.16 1 1.77 1.52a1.18 1.18 0 0 0 .43-.91ZM181.42 210.38a1.2 1.2 0 0 0 0 2.4 1.27 1.27 0 0 0 .6-.18 11.12 11.12 0 0 1-.5-2.2ZM175.42 210.38a1.2 1.2 0 1 0 1.2 1.2 1.2 1.2 0 0 0-1.2-1.2ZM178.42 207.38a1.2 1.2 0 1 0 1.2 1.2 1.2 1.2 0 0 0-1.2-1.2ZM178.42 213.38a1.2 1.2 0 1 0 1.2 1.2 1.2 1.2 0 0 0-1.2-1.2ZM181.42 216.38a1.2 1.2 0 1 0 1.2 1.2 1.2 1.2 0 0 0-1.2-1.2ZM175.42 216.38a1.2 1.2 0 1 0 1.2 1.2 1.2 1.2 0 0 0-1.2-1.2ZM181.42 194.75a1.2 1.2 0 1 0-1.2-1.2 1.2 1.2 0 0 0 1.2 1.2ZM175.42 192.38a1.2 1.2 0 1 0 1.2 1.2 1.2 1.2 0 0 0-1.2-1.2ZM181.42 200.75a1.2 1.2 0 1 0-1.2-1.2 1.2 1.2 0 0 0 1.2 1.2ZM175.42 198.38a1.2 1.2 0 1 0 1.2 1.2 1.2 1.2 0 0 0-1.2-1.2ZM178.42 195.38a1.2 1.2 0 1 0 1.2 1.2 1.2 1.2 0 0 0-1.2-1.2ZM184.42 197.75a1.2 1.2 0 1 0-1.2-1.2 1.2 1.2 0 0 0 1.2 1.2ZM178.42 201.38a1.2 1.2 0 1 0 1.2 1.2 1.2 1.2 0 0 0-1.2-1.2ZM183.22 202.58v.06a12.28 12.28 0 0 1 .85-1.19 1.19 1.19 0 0 0-.85 1.13ZM181.42 204.38a1.2 1.2 0 0 0 0 2.4h.21a13.33 13.33 0 0 1 .59-2.05 1.18 1.18 0 0 0-.8-.35ZM175.42 204.38a1.2 1.2 0 1 0 1.2 1.2 1.2 1.2 0 0 0-1.2-1.2ZM193.42 222.38a1.2 1.2 0 1 0 1.2 1.2 1.2 1.2 0 0 0-1.2-1.2ZM187.42 222.38a1.2 1.2 0 1 0 1.2 1.2 1.2 1.2 0 0 0-1.2-1.2ZM189.22 220.58a1.2 1.2 0 1 0 2.4 0 11.6 11.6 0 0 1-2.26-.53 1.19 1.19 0 0 0-.14.53ZM195.22 220.58a1.2 1.2 0 1 0 2.4 0 1.09 1.09 0 0 0-.23-.67 12.45 12.45 0 0 1-2.15.59.29.29 0 0 0-.02.08ZM190.42 225.38a1.2 1.2 0 1 0 1.2 1.2 1.2 1.2 0 0 0-1.2-1.2ZM196.42 225.38a1.2 1.2 0 1 0 1.2 1.2 1.2 1.2 0 0 0-1.2-1.2ZM193.42 228.38a1.2 1.2 0 1 0 1.2 1.2 1.2 1.2 0 0 0-1.2-1.2ZM187.42 228.38a1.2 1.2 0 1 0 1.2 1.2 1.2 1.2 0 0 0-1.2-1.2ZM193.42 194.75a1.2 1.2 0 1 0-1.2-1.2 1.2 1.2 0 0 0 1.2 1.2ZM187.42 194.75a1.2 1.2 0 1 0-1.2-1.2 1.2 1.2 0 0 0 1.2 1.2ZM187.42 198.38a1.18 1.18 0 0 0-1.16 1 12.49 12.49 0 0 1 1.52-.95.9.9 0 0 0-.36-.05ZM191.62 196.58a1.2 1.2 0 1 0-2.4 0 1.15 1.15 0 0 0 .63 1 13.28 13.28 0 0 1 1.52-.33 1.17 1.17 0 0 0 .25-.67ZM197.62 196.58a1.2 1.2 0 0 0-2.4 0 1.13 1.13 0 0 0 .31.78 9.41 9.41 0 0 1 1.29.34 1.18 1.18 0 0 0 .8-1.12ZM205.42 222.38a1.2 1.2 0 1 0 1.2 1.2 1.2 1.2 0 0 0-1.2-1.2ZM199.42 222.38a1.2 1.2 0 1 0 1.2 1.2 1.2 1.2 0 0 0-1.2-1.2ZM202.42 219.38a1.2 1.2 0 1 0 1.2 1.2 1.2 1.2 0 0 0-1.2-1.2ZM208.42 219.38a1.2 1.2 0 1 0 1.2 1.2 1.2 1.2 0 0 0-1.2-1.2ZM202.42 225.38a1.2 1.2 0 1 0 1.2 1.2 1.2 1.2 0 0 0-1.2-1.2ZM208.42 225.38a1.2 1.2 0 1 0 1.2 1.2 1.2 1.2 0 0 0-1.2-1.2ZM211.42 222.38a1.2 1.2 0 1 0 1.2 1.2 1.2 1.2 0 0 0-1.2-1.2ZM205.42 228.38a1.2 1.2 0 1 0 1.2 1.2 1.2 1.2 0 0 0-1.2-1.2ZM199.42 228.38a1.2 1.2 0 1 0 1.2 1.2 1.2 1.2 0 0 0-1.2-1.2ZM210.22 229.58a1.18 1.18 0 0 0 .26.7 23.51 23.51 0 0 0 1.77-1.56 1.2 1.2 0 0 0-1.69.09 1.23 1.23 0 0 0-.31.77ZM205.42 212.75a1.2 1.2 0 1 0-.56-2.24 11.61 11.61 0 0 1-.38 1.75 1.21 1.21 0 0 0 .94.49ZM208.42 207.38a1.2 1.2 0 1 0 1.2 1.2 1.2 1.2 0 0 0-1.2-1.2ZM203.62 214.58v-.13a14.54 14.54 0 0 1-.78 1.25 1.19 1.19 0 0 0 .78-1.12ZM208.42 213.38a1.2 1.2 0 1 0 1.2 1.2 1.2 1.2 0 0 0-1.2-1.2ZM211.42 210.38a1.2 1.2 0 1 0 1.2 1.2 1.2 1.2 0 0 0-1.2-1.2ZM205.42 216.38a1.2 1.2 0 1 0 1.2 1.2 1.2 1.2 0 0 0-1.2-1.2ZM200.42 218.2c-.23.18-.46.36-.7.52a1.14 1.14 0 0 0 .7-.52ZM211.42 216.38a1.2 1.2 0 1 0 1.2 1.2 1.2 1.2 0 0 0-1.2-1.2ZM205.42 192.38a1.2 1.2 0 1 0 1.2 1.2 1.2 1.2 0 0 0-1.2-1.2ZM199.42 194.75a1.2 1.2 0 1 0-1.2-1.2 1.2 1.2 0 0 0 1.2 1.2ZM205.42 198.38a1.2 1.2 0 1 0 1.2 1.2 1.2 1.2 0 0 0-1.2-1.2ZM200.62 199.58a1.2 1.2 0 0 0-1.2-1.2 1.13 1.13 0 0 0-.59.18 11.51 11.51 0 0 1 1.76 1.18ZM202.42 197.75a1.2 1.2 0 1 0-1.2-1.2 1.2 1.2 0 0 0 1.2 1.2ZM208.42 195.38a1.2 1.2 0 1 0 1.2 1.2 1.2 1.2 0 0 0-1.2-1.2ZM203.62 202.58a1.2 1.2 0 0 0-1.2-1.2h-.13a12 12 0 0 1 1.18 1.73 1.2 1.2 0 0 0 .15-.53ZM208.42 201.38a1.2 1.2 0 1 0 1.2 1.2 1.2 1.2 0 0 0-1.2-1.2ZM211.42 192.38a1.2 1.2 0 1 0 1.2 1.2 1.2 1.2 0 0 0-1.2-1.2ZM211.42 198.38a1.2 1.2 0 1 0 1.2 1.2 1.2 1.2 0 0 0-1.2-1.2ZM206.62 205.58a1.19 1.19 0 0 0-2.28-.5 15.09 15.09 0 0 1 .41 1.46 1.16 1.16 0 0 0 .67.24 1.2 1.2 0 0 0 1.2-1.2ZM211.42 204.38a1.2 1.2 0 1 0 1.2 1.2 1.2 1.2 0 0 0-1.2-1.2Z"/><path class="cls-1" d="m130.37 161.34 1.09-.91 17.14 20.32-.8.66-13.51 15.7-2.19 1a27.58 27.58 0 0 0-17.74-15.65l.3-1.05Zm18.41-24.13 17.36 22.17 1.94-1.52 32.48-37.74c13.6-15 16.21-38.32 6.3-56.52L150 136.25Z"/><path class="cls-3" d="M134.05 195.83a1.43 1.43 0 0 1 1.75-.46l-1.51 1.75-.37.17a1.42 1.42 0 0 1 .13-1.46ZM142.51 184.18a1.43 1.43 0 0 1 2-.33 1.39 1.39 0 0 1 .55.77l-1.57 1.83a1.38 1.38 0 0 1-.65-.26 1.44 1.44 0 0 1-.33-2.01ZM138.28 190a1.44 1.44 0 0 1 2-.32 2.09 2.09 0 0 1 .22.2l-1.85 2.16h-.06a1.42 1.42 0 0 1-.34-2ZM147.06 180.37a1.44 1.44 0 0 1-.39-1.89l1.75 2.07a1.47 1.47 0 0 1-1.36-.18ZM128.22 191.6a1.44 1.44 0 0 1 2.33 1.69 1.39 1.39 0 0 1-.77.53c-.49-.75-1-1.47-1.58-2.17a.17.17 0 0 1 .02-.05ZM124.41 187.05a1.48 1.48 0 0 1 .59 1.25c-.59-.52-1.2-1-1.83-1.47a1.44 1.44 0 0 1 1.24.22ZM133.67 180.43a1.44 1.44 0 1 1-1.68 2.34 1.45 1.45 0 0 1-.33-2 1.44 1.44 0 0 1 2.01-.34ZM139.49 184.66a1.44 1.44 0 0 1-1.61 2.39l-.08-.06a1.46 1.46 0 0 1-.32-2 1.43 1.43 0 0 1 2-.34ZM138.7 179.63A1.44 1.44 0 1 1 137 182a1.45 1.45 0 0 1-.33-2 1.46 1.46 0 0 1 2.03-.37ZM130.86 175.75a1.44 1.44 0 1 1 2.34 1.68 1.45 1.45 0 0 1-2 .33 1.44 1.44 0 0 1-.32-2ZM134.47 185.46a1.44 1.44 0 1 1-2 .31 1.45 1.45 0 0 1 2-.31ZM129 183.24a1.44 1.44 0 0 1-2.34-1.68 1.45 1.45 0 0 1 2-.33 1.44 1.44 0 0 1 .34 2.01ZM129.44 186.25a1.44 1.44 0 0 1-1.68 2.34 1.45 1.45 0 0 1-.33-2 1.46 1.46 0 0 1 2.01-.34ZM135.26 190.48a1.44 1.44 0 0 1-1.68 2.34 1.45 1.45 0 0 1-.33-2 1.44 1.44 0 0 1 2.01-.34ZM140 170.54l.5.59a1.43 1.43 0 0 1-.5-.59ZM143.25 175.82a1.44 1.44 0 1 1-.66-2.19l.9 1.07a1.44 1.44 0 0 1-.24 1.12ZM135.41 171.9a1.44 1.44 0 1 1 2-.32 1.44 1.44 0 0 1-2 .32ZM135.89 174.92a1.42 1.42 0 1 1-.06.08ZM143.73 178.83a1.44 1.44 0 0 1-1.68 2.34 1.45 1.45 0 0 1-.33-2 1.46 1.46 0 0 1 2.01-.34ZM118.58 182.82a1.42 1.42 0 0 1 .55 1.52c-.84-.42-1.71-.8-2.6-1.14v-.06a1.43 1.43 0 0 1 2-.36ZM122.34 174a1.44 1.44 0 0 1-2 .32h-.06l1.77-2.26a1.44 1.44 0 0 1 .29 1.94ZM126.15 178.53a1.46 1.46 0 0 1-.32-2 1.44 1.44 0 0 1 2.34 1.68 1.45 1.45 0 0 1-2 .33ZM125.35 173.5a1.44 1.44 0 1 1 1.68-2.34 1.45 1.45 0 0 1 .33 2 1.46 1.46 0 0 1-2.01.34ZM121.12 179.32a1.44 1.44 0 1 1 1.68-2.32 1.45 1.45 0 0 1 .33 2 1.44 1.44 0 0 1-2 .32ZM118.11 179.8a1.46 1.46 0 0 1-2 .32 1.75 1.75 0 0 1-.24-.23l1.74-2.22.2.12a1.46 1.46 0 0 1 .3 2.01ZM121.92 184.35a1.44 1.44 0 1 1 1.68-2.35 1.45 1.45 0 0 1 .33 2 1.44 1.44 0 0 1-2.01.35ZM130.8 162.32a1.42 1.42 0 0 1-1.61.52l1.18-1.5.56-.47a1.4 1.4 0 0 1-.13 1.45ZM134.62 166.88a1.44 1.44 0 0 1-.32-2 1.41 1.41 0 0 1 .53-.44l1.8 2.14a1.46 1.46 0 0 1-2.01.3ZM129.59 167.67a1.44 1.44 0 1 1 1.68-2.34 1.45 1.45 0 0 1 .33 2 1.44 1.44 0 0 1-2 .32ZM126.57 168.15a1.44 1.44 0 0 1-1.85.41l1.74-2.23a1.42 1.42 0 0 1 .11 1.82ZM130.38 172.75a1.44 1.44 0 0 1 1.68-2.34 1.45 1.45 0 0 1 .33 2 1.44 1.44 0 0 1-2 .32ZM168.7 154.26a1.44 1.44 0 0 1 2-.32 1.56 1.56 0 0 1 .39.42l-1.79 2.07a1.18 1.18 0 0 1-.29-.16 1.44 1.44 0 0 1-.31-2.01ZM169.91 148.91a1.44 1.44 0 0 1-1.61 2.39l-.08-.06a1.44 1.44 0 0 1 1.69-2.33ZM163.67 155.06a1.44 1.44 0 1 1 .84 2.25l-1.11-1.43a1.44 1.44 0 0 1 .27-.82ZM179.18 142.29a1.44 1.44 0 1 1-1.68 2.34 1.45 1.45 0 0 1-.33-2 1.44 1.44 0 0 1 2.01-.34ZM178.38 137.26a1.44 1.44 0 0 1-1.61 2.39l-.08-.06a1.44 1.44 0 0 1-.32-2 1.45 1.45 0 0 1 2.01-.33ZM174.15 143.09a1.44 1.44 0 1 1-1.68 2.34 1.45 1.45 0 0 1-.33-2 1.44 1.44 0 0 1 2-.32ZM173.25 150.45a1.44 1.44 0 1 1 1.61-2.39l.08.06a1.43 1.43 0 0 1 .59 1.09l-1.29 1.5a1.51 1.51 0 0 1-.99-.26ZM187.64 130.64A1.44 1.44 0 0 1 186 133a1.45 1.45 0 0 1-.33-2 1.44 1.44 0 0 1 1.97-.36ZM190.66 130.16a1.45 1.45 0 0 1 1.68-.49l-1.77 2.05a1.43 1.43 0 0 1 .09-1.56ZM186.84 125.61a1.44 1.44 0 1 1-1.68 2.34 1.45 1.45 0 0 1-.33-2 1.44 1.44 0 0 1 2.01-.34ZM186.42 136a1.48 1.48 0 0 1 1-.58l-1.25 1.45a1.5 1.5 0 0 1 .25-.87ZM182.61 131.44a1.44 1.44 0 1 1-1.68 2.34 1.45 1.45 0 0 1-.33-2 1.44 1.44 0 0 1 2.01-.34ZM183.41 136.47a1.44 1.44 0 0 1-1.68 2.34 1.45 1.45 0 0 1-.33-2 1.44 1.44 0 0 1 2-.32ZM196.1 119a1.44 1.44 0 0 1-1.68 2.34 1.45 1.45 0 0 1-.33-2 1.46 1.46 0 0 1 2.01-.34ZM199.12 118.51a1.44 1.44 0 0 1 2-.31 1.41 1.41 0 0 1 .51.67c-.35.42-.71.84-1.08 1.25l-.56.65a1.47 1.47 0 0 1-.56-.24 1.45 1.45 0 0 1-.31-2.02ZM195.31 114a1.44 1.44 0 1 1-2 .31 1.45 1.45 0 0 1 2-.31ZM194.89 124.34a1.44 1.44 0 0 1 2-.32l.17.15-1.87 2.17a1.42 1.42 0 0 1-.3-2ZM191.08 119.75a1.44 1.44 0 1 1-1.68 2.34 1.45 1.45 0 0 1-.33-2 1.44 1.44 0 0 1 2.01-.34ZM191.87 124.82a1.44 1.44 0 1 1-1.68 2.34 1.45 1.45 0 0 1-.33-2 1.44 1.44 0 0 1 2.01-.34ZM204.57 107.34a1.44 1.44 0 0 1-1.68 2.34 1.45 1.45 0 0 1-.33-2 1.46 1.46 0 0 1 2.01-.34ZM207.58 106.86a1.44 1.44 0 0 1 1.58-.52c-.35.88-.73 1.75-1.14 2.6l-.12-.06a1.46 1.46 0 0 1-.32-2.02ZM203.77 102.31a1.44 1.44 0 1 1-1.61 2.39l-.08-.06a1.44 1.44 0 0 1-.32-2 1.45 1.45 0 0 1 2.01-.33ZM203.67 114.75a1.44 1.44 0 1 1 2.17-1.72c-.4.68-.83 1.34-1.26 2a1.47 1.47 0 0 1-.91-.28ZM199.54 108.14a1.44 1.44 0 1 1-1.68 2.34 1.45 1.45 0 0 1-.33-2 1.44 1.44 0 0 1 2.01-.34ZM200.34 113.17a1.44 1.44 0 1 1-1.68 2.34 1.45 1.45 0 0 1-.33-2 1.44 1.44 0 0 1 2.01-.34ZM211 96a1.47 1.47 0 0 1 1.18-.59c-.15.93-.32 1.86-.52 2.78a2.21 2.21 0 0 1-.34-.18A1.44 1.44 0 0 1 211 96ZM210.54 93a1.44 1.44 0 1 1 2.16-1.75 13.65 13.65 0 0 1-.14 1.42 1.44 1.44 0 0 1-2 .34ZM208 96.49a1.44 1.44 0 0 1-1.68 2.34 1.45 1.45 0 0 1-.33-2 1.44 1.44 0 0 1 2-.32ZM208.8 101.52a1.44 1.44 0 1 1-1.68 2.34 1.45 1.45 0 0 1-.33-2 1.44 1.44 0 0 1 2.01-.34ZM159.06 145.48a1.44 1.44 0 1 1-1.68 2.34 1.45 1.45 0 0 1-.33-2 1.44 1.44 0 0 1 2.01-.34ZM164.89 149.75a1.44 1.44 0 1 1-1.68 2.34 1.45 1.45 0 0 1-.33-2 1.46 1.46 0 0 1 2.01-.34ZM164.09 144.68a1.44 1.44 0 1 1-1.68 2.34 1.45 1.45 0 0 1-.33-2 1.44 1.44 0 0 1 2.01-.34ZM158.58 142.46a1.44 1.44 0 1 1-2.34-1.68 1.45 1.45 0 0 1 2-.33 1.44 1.44 0 0 1 .34 2.01ZM159.86 150.51a1.43 1.43 0 0 1 .54 1.54l-1.4-1.81a1.4 1.4 0 0 1 .86.27ZM167.84 135.84a1.44 1.44 0 1 1-.32-2 1.44 1.44 0 0 1 .32 2ZM173.35 138.06a1.44 1.44 0 0 1-1.68 2.34 1.45 1.45 0 0 1-.33-2 1.44 1.44 0 0 1 2.01-.34ZM170.54 133.35a1.44 1.44 0 0 1 2.34 1.68 1.45 1.45 0 0 1-2 .33 1.44 1.44 0 0 1-.34-2.01ZM165 131.13a1.44 1.44 0 1 1 1.68-2.34 1.45 1.45 0 0 1 .33 2 1.44 1.44 0 0 1-2 .32ZM168.32 138.86a1.44 1.44 0 0 1 .32 2 1.44 1.44 0 1 1-2.39-1.61l.06-.08a1.44 1.44 0 0 1 2-.32ZM160.8 137a1.44 1.44 0 1 1 2-.31 1.46 1.46 0 0 1-2 .31ZM163.61 141.66a1.44 1.44 0 1 1-2.39-1.61l.06-.08a1.46 1.46 0 0 1 2-.32 1.43 1.43 0 0 1 .34 2ZM169.12 143.89a1.44 1.44 0 1 1-2 .32 1.44 1.44 0 0 1 2-.32ZM176.31 124.19a1.44 1.44 0 0 1-2.34-1.68 1.45 1.45 0 0 1 2-.33 1.44 1.44 0 0 1 .34 2.01ZM179.8 126.75a1.44 1.44 0 0 1 2.34 1.68 1.45 1.45 0 0 1-2 .33 1.44 1.44 0 0 1-.34-2.01ZM179.33 123.75a1.44 1.44 0 0 1 1.69-2.33 1.46 1.46 0 0 1 .32 2 1.43 1.43 0 0 1-2 .34ZM173.5 119.48a1.44 1.44 0 1 1 1.68-2.34 1.45 1.45 0 0 1 .33 2 1.44 1.44 0 0 1-2.01.34ZM174.77 127.53a1.44 1.44 0 1 1 2.34 1.68 1.45 1.45 0 0 1-2 .33 1.44 1.44 0 0 1-.34-2.01ZM169.27 125.3a1.44 1.44 0 1 1 2-.32 1.44 1.44 0 0 1-2 .32ZM172.08 130a1.44 1.44 0 1 1-2.34-1.68 1.45 1.45 0 0 1 2-.33 1.44 1.44 0 0 1 .34 2.01ZM177.58 132.24a1.44 1.44 0 0 1 .32 2 1.44 1.44 0 1 1-2.34-1.68 1.45 1.45 0 0 1 2-.33ZM184.77 112.54a1.44 1.44 0 1 1-2.34-1.68 1.45 1.45 0 0 1 2-.33 1.44 1.44 0 0 1 .34 2.01ZM188.27 115.08a1.44 1.44 0 1 1 2.34 1.68 1.45 1.45 0 0 1-2 .33 1.44 1.44 0 0 1-.34-2.01ZM187.79 112.06a1.44 1.44 0 0 1 1.68-2.34 1.45 1.45 0 0 1 .33 2 1.44 1.44 0 0 1-2.01.34ZM182 107.83a1.44 1.44 0 1 1 1.68-2.34 1.45 1.45 0 0 1 .33 2 1.44 1.44 0 0 1-2.01.34ZM183.56 117.89a1.44 1.44 0 1 1 1.68-2.34 1.45 1.45 0 0 1 .33 2 1.46 1.46 0 0 1-2.01.34ZM177.73 113.65a1.44 1.44 0 1 1 2-.32 1.44 1.44 0 0 1-2 .32ZM180.54 118.36a1.44 1.44 0 0 1-2.39-1.61l.06-.08a1.44 1.44 0 0 1 2.33 1.69ZM184 120.9a1.44 1.44 0 1 1 2.33 1.7 1.44 1.44 0 1 1-2.33-1.7ZM193.24 100.89a1.44 1.44 0 1 1-2.34-1.68 1.45 1.45 0 0 1 2-.33 1.44 1.44 0 0 1 .34 2.01ZM196.73 103.43a1.44 1.44 0 0 1 2.34 1.68 1.45 1.45 0 0 1-2 .33 1.44 1.44 0 0 1-.34-2.01ZM196.25 100.41a1.44 1.44 0 1 1 1.68-2.34 1.45 1.45 0 0 1 .33 2 1.46 1.46 0 0 1-2.01.34ZM190.43 96.18a1.44 1.44 0 1 1 1.68-2.34 1.45 1.45 0 0 1 .33 2 1.44 1.44 0 0 1-2.01.34ZM192 106.24a1.46 1.46 0 0 1-.32-2 1.44 1.44 0 0 1 2.33 1.69 1.46 1.46 0 0 1-2.01.31ZM186.2 102a1.44 1.44 0 0 1-.32-2 1.44 1.44 0 1 1 2.34 1.68 1.45 1.45 0 0 1-2 .33ZM189 106.75a1.44 1.44 0 0 1-2 .32 1.44 1.44 0 1 1 1.68-2.34 1.45 1.45 0 0 1 .33 2ZM192.5 109.25a1.44 1.44 0 1 1 2.34 1.68 1.45 1.45 0 0 1-2 .33 1.44 1.44 0 0 1-.34-2.01ZM201.7 89.24a1.44 1.44 0 0 1-2.34-1.68 1.45 1.45 0 0 1 2-.33 1.44 1.44 0 0 1 .34 2.01ZM205.2 91.75a1.44 1.44 0 1 1 .32 2 1.44 1.44 0 0 1-.32-2ZM206.73 88.44a1.44 1.44 0 0 1-2.34-1.68 1.45 1.45 0 0 1 2-.33 1.44 1.44 0 0 1 .32 2ZM198.89 84.53a1.44 1.44 0 0 1 1.68-2.34 1.45 1.45 0 0 1 .33 2 1.46 1.46 0 0 1-2.01.34ZM200.49 94.59a1.44 1.44 0 1 1 1.61-2.39l.08.06a1.44 1.44 0 1 1-1.61 2.39ZM194.66 90.36a1.44 1.44 0 0 1 1.61-2.36l.08.06a1.44 1.44 0 0 1 .32 2 1.45 1.45 0 0 1-2.01.3ZM197.47 95.07a1.44 1.44 0 0 1-2.34-1.68 1.45 1.45 0 0 1 2-.33 1.44 1.44 0 0 1 .34 2.01ZM201 97.6a1.44 1.44 0 1 1 2.34 1.68 1.45 1.45 0 0 1-2 .33 1.46 1.46 0 0 1-.34-2.01ZM208.15 77.91a1.44 1.44 0 1 1 1.68-2.34 1.45 1.45 0 0 1 .33 2 1.46 1.46 0 0 1-2.01.34ZM207.36 72.88a1.44 1.44 0 0 1 1.64-2.34 1.45 1.45 0 0 1 .33 2 1.44 1.44 0 0 1-2 .32ZM209 82.94a1.44 1.44 0 1 1 1.68-2.34 1.45 1.45 0 0 1 .33 2 1.44 1.44 0 0 1-2.01.34ZM203.12 78.75a1.44 1.44 0 1 1 1.68-2.34 1.45 1.45 0 0 1 .33 2 1.46 1.46 0 0 1-2.01.34ZM205.93 83.42a1.44 1.44 0 1 1-2.34-1.68 1.45 1.45 0 0 1 2-.33 1.44 1.44 0 0 1 .34 2.01ZM209.43 86a1.44 1.44 0 1 1 2.34 1.68 1.45 1.45 0 0 1-2 .33 1.44 1.44 0 0 1-.34-2.01ZM153.24 141.25a1.46 1.46 0 0 1 .32 2l-1.71-2.19a1.44 1.44 0 0 1 1.39.19ZM150.75 138.55a1.44 1.44 0 1 1 1.68-2.34 1.45 1.45 0 0 1 .33 2 1.46 1.46 0 0 1-2.01.34ZM160 131.93a1.44 1.44 0 1 1 1.68-2.34 1.45 1.45 0 0 1 .33 2 1.44 1.44 0 0 1-2.01.34ZM159.21 126.9a1.46 1.46 0 0 1-.32-2 1.44 1.44 0 0 1 2.34 1.68 1.45 1.45 0 0 1-2 .33ZM155 132.75a1.44 1.44 0 1 1 1.68-2.34 1.45 1.45 0 0 1 .33 2 1.44 1.44 0 0 1-2.01.34ZM155.78 137.75a1.44 1.44 0 0 1 1.69-2.33 1.46 1.46 0 0 1 .32 2 1.43 1.43 0 0 1-2 .34ZM168.47 120.28a1.46 1.46 0 0 1-.32-2 1.44 1.44 0 1 1 2.34 1.68 1.45 1.45 0 0 1-2 .33ZM169.37 112.92a1.44 1.44 0 0 1-1.69 2.33 1.42 1.42 0 0 1-.56-.87l1.35-1.73a1.45 1.45 0 0 1 .9.27ZM165.14 118.75a1.44 1.44 0 1 1-1.7 2.33 1.4 1.4 0 0 1-.58-1.25l1-1.28a1.43 1.43 0 0 1 1.28.2ZM164.24 126.1a1.44 1.44 0 1 1 1.68-2.34 1.45 1.45 0 0 1 .33 2 1.44 1.44 0 0 1-2.01.34ZM176.94 108.63a1.44 1.44 0 0 1 1.68-2.34 1.45 1.45 0 0 1 .33 2 1.44 1.44 0 0 1-2.01.34ZM178.15 103.28a1.44 1.44 0 0 1-2 .32 1.3 1.3 0 0 1-.32-.34l1.69-2.16a1.23 1.23 0 0 1 .32.17 1.44 1.44 0 0 1 .32 2ZM173.92 109.1a1.44 1.44 0 0 1-2 .32 1.42 1.42 0 0 1-.46-.57l1.56-2a1.28 1.28 0 0 1 .59.24 1.44 1.44 0 0 1 .31 2.01ZM172.7 114.45a1.44 1.44 0 0 1 1.68-2.34 1.45 1.45 0 0 1 .33 2 1.44 1.44 0 0 1-2.01.34ZM185.4 97a1.44 1.44 0 1 1 1.68-2.34 1.45 1.45 0 0 1 .33 2 1.44 1.44 0 0 1-2.01.34ZM186.62 91.63a1.44 1.44 0 0 1-2 .34l1.76-2.25a1.44 1.44 0 0 1 .24 1.91ZM182.38 97.45a1.44 1.44 0 0 1-2 .32l-.15-.13 1.77-2.25h.08a1.44 1.44 0 0 1 .32 2ZM181.17 102.8a1.44 1.44 0 0 1 1.68-2.34 1.45 1.45 0 0 1 .33 2 1.44 1.44 0 0 1-2 .32ZM193.86 85.33a1.44 1.44 0 0 1 1.68-2.33 1.45 1.45 0 0 1 .33 2 1.46 1.46 0 0 1-2.01.33ZM195.08 80a1.46 1.46 0 0 1-1.48.56l1.6-2a1.41 1.41 0 0 1-.12 1.44ZM190.85 85.8a1.45 1.45 0 0 1-1.74.48l1.71-2.19a1.43 1.43 0 0 1 .03 1.71ZM189.63 91.15a1.44 1.44 0 0 1 1.61-2.39l.08.06a1.44 1.44 0 1 1-1.61 2.39ZM202.33 73.68a1.44 1.44 0 0 1 1.67-2.34 1.45 1.45 0 0 1 .33 2 1.46 1.46 0 0 1-2 .34ZM203.54 68.33a1.45 1.45 0 0 1-.81.54l1.08-1.38a1.4 1.4 0 0 1-.27.84ZM199.31 74.15a1.41 1.41 0 0 1-1.18.6l1.41-1.8a1.47 1.47 0 0 1-.23 1.2ZM198.1 79.5a1.44 1.44 0 0 1 1.68-2.34 1.45 1.45 0 0 1 .33 2 1.44 1.44 0 0 1-2 .32ZM208.57 67.53a1.44 1.44 0 0 1-2.39-1.61l.06-.08a1.44 1.44 0 0 1 1.49-.56c.34.68.65 1.37 1 2.06a.74.74 0 0 1-.16.19Z"/><path class="cls-2" d="m148.78 137.21 17.36 22.17 17.24 22 2.94.86a27.52 27.52 0 0 0-19.56 19.08l-1-.3-17.16-20.27-17.14-20.33-34-40.31c-13.61-15-16.21-38.32-6.31-56.52Zm-.78 22.61a2 2 0 1 0-2-2 2 2 0 0 0 2 2Z"/><path class="cls-4" d="m147.8 181.42-15.3 17.33M150 136.25l56.86-72.65c9.91 18.2 7.3 41.51-6.3 56.52l-32.48 37.74M114.66 181.42l15.71-20.08M183.38 181.42l-17.24-22-17.36-22.17-57.6-73.61c-9.9 18.2-7.3 41.51 6.31 56.52l34 40.31 17.11 20.28 17.11 20.3"/><path d="M148.05 152.35a5.5 5.5 0 1 0 5.49 5.52 5.5 5.5 0 0 0-5.49-5.52Z" style="fill:#262626"/><path class="cls-4" d="M166.76 201.36a27.48 27.48 0 1 0 26.44-19.94 28 28 0 0 0-6.88.86 27.52 27.52 0 0 0-19.56 19.08Z"/><circle class="cls-4" cx="193.2" cy="208.91" r="11.78"/><path class="cls-4" d="M132.1 198.12a27.46 27.46 0 1 1-17.74-15.65 27.45 27.45 0 0 1 17.74 15.65Z"/><circle class="cls-4" cx="106.8" cy="208.91" r="11.78"/></svg>